<svg xmlns="http://www.w3.org/2000/svg" viewBox="2757.786 513.844 22.4 22.4"><defs><style>.a{fill:#bdbdbd;}</style></defs><path class="a" d="M1373.2,630a11.2,11.2,0,1,0,11.2,11.2,11.182,11.182,0,0,0-11.2-11.2Zm4.8,4.4a.368.368,0,0,1,.3.1l1.5,1.5a.375.375,0,0,1,0,.6l-.5.5-.8.8-.3.3-.3-.3-1.5-1.5-.3-.3.3-.3.8-.8.5-.5C1377.8,634.5,1377.9,634.4,1378,634.4Zm-2.4,2.3,2.1,2.1-6.6,6.6-.6.6-.3-.3-1.5-1.5-.3-.3.6-.6Zm-7.6,7.6h0l2,2,.1.1h0l-.4.1-1.7.5-.5.1c-.2.1-.3-.1-.3-.3l.1-.5h0l.5-1.7.2-.3Z" transform="translate(1395.786 -116.156)"/></svg>