<svg xmlns="http://www.w3.org/2000/svg" viewBox="14046.3 -800.6 64.3 69.801">
  <defs>
    <style>
      .cls-1 {
        fill: #bdbdbd;
      }
    </style>
  </defs>
  <g id="그룹_4952" data-name="그룹 4952" transform="translate(13258 -1143)">
    <path id="패스_2068" data-name="패스 2068" class="cls-1" d="M852.6,398.5l-.4-4.2a9.153,9.153,0,0,1-.1-1.6,19.719,19.719,0,0,0-15.9-18.6c-1.7-.3-3.4-.6-5.3-.8a19.9,19.9,0,0,1-21.8.1c-1.5.2-2.9.4-4.2.7a19.682,19.682,0,0,0-15.8,18.2c-.1.8-.1,1.5-.2,2.3l-.6,4.8a45.645,45.645,0,0,0,64.3-.9Z"/>
    <path id="패스_2069" data-name="패스 2069" class="cls-1" d="M819.9,342.4a14.7,14.7,0,1,0,14.7,14.7A14.724,14.724,0,0,0,819.9,342.4Z"/>
  </g>
</svg>
